<svg xmlns="http://www.w3.org/2000/svg" version="1.1" xmlns:xlink="http://www.w3.org/1999/xlink" xmlns:svgjs="http://svgjs.dev/svgjs" width="1440" height="560" preserveAspectRatio="none" viewBox="0 0 1440 560"><g mask="url(&quot;#SvgjsMask1010&quot;)" fill="none"><path d="M1305.104,550.953C1358.124,551.369,1409.984,531.032,1438.799,486.523C1470.294,437.874,1481.051,374.666,1451.509,324.807C1422.415,275.705,1362.037,256.878,1305.104,260.882C1254.822,264.418,1215.849,299.598,1190.495,343.164C1164.953,387.054,1150.467,439.988,1174.993,484.454C1200.206,530.166,1252.902,550.544,1305.104,550.953" fill="rgba(33, 213, 255, 0.26)" class="triangle-float3"></path><path d="M1323.388,286.668C1341.272,287.656,1359.113,278.041,1367.014,261.967C1374.252,247.242,1365.832,231.22,1357.627,217.011C1349.423,202.803,1339.771,187.277,1323.388,186.411C1305.906,185.487,1290.148,197.405,1282.244,213.025C1275.011,227.318,1279.566,243.584,1287.379,257.568C1295.446,272.007,1306.873,285.756,1323.388,286.668" fill="rgba(33, 213, 255, 0.26)" class="triangle-float1"></path><path d="M714.553,646.005C746.909,644.732,775.003,625.036,790.565,596.639C805.512,569.364,803.661,537.187,789.309,509.594C773.599,479.391,748.556,452.163,714.553,450.501C678.06,448.718,644.092,469.884,625.972,501.611C607.996,533.086,608.471,572.162,627.425,603.058C645.572,632.639,679.876,647.369,714.553,646.005" fill="rgba(33, 213, 255, 0.26)" class="triangle-float1"></path><path d="M25.708,465.695C45.769,466.345,66.493,459.39,76.697,442.105C87.042,424.58,82.613,403.291,73.197,385.249C62.843,365.41,48.068,345.291,25.708,344.406C2.236,343.477,-18.577,360.049,-28.774,381.211C-37.838,400.022,-31.176,421.426,-19.859,438.974C-9.631,454.834,6.846,465.083,25.708,465.695" fill="rgba(33, 213, 255, 0.26)" class="triangle-float2"></path><path d="M1434.917,283.293C1469.285,282.764,1496.836,256.872,1512.353,226.202C1526.359,198.518,1521.566,167.228,1507.672,139.488C1491.75,107.699,1470.409,73.681,1434.917,71.593C1396.88,69.355,1363.232,96.152,1345.652,129.957C1329.335,161.332,1335.446,198.089,1353.238,228.651C1370.902,258.993,1399.812,283.833,1434.917,283.293" fill="rgba(33, 213, 255, 0.26)" class="triangle-float1"></path><path d="M604.657,399.326C644.27,399.109,679.384,374.791,698.336,340.005C716.485,306.692,715.779,265.482,694.794,233.879C675.688,205.106,639.163,197.408,604.657,198.928C573.184,200.314,544.867,215.106,527.299,241.257C507.094,271.332,493.258,308.496,509.185,341.04C526.752,376.935,564.695,399.545,604.657,399.326" fill="rgba(33, 213, 255, 0.26)" class="triangle-float3"></path><path d="M566.601,660.614C606.861,664.162,649.32,650.946,670.884,616.764C693.725,580.558,692.902,533.019,669.854,496.944C648.31,463.223,606.525,450.836,566.601,453.538C531.346,455.924,501.335,478.11,485.019,509.454C469.926,538.45,474.411,572.052,489.937,600.819C506.435,631.387,531.999,657.565,566.601,660.614" fill="rgba(33, 213, 255, 0.26)" class="triangle-float3"></path><path d="M983.808,352.112C1033.444,351.037,1086.93,343.675,1113.264,301.587C1140.882,257.447,1133.588,200.478,1106.512,156.003C1080.534,113.331,1033.761,89.645,983.808,88.942C932.494,88.22,882.596,109.213,854.971,152.462C825.099,199.228,814.169,260.789,844.258,307.415C872.644,351.402,931.469,353.246,983.808,352.112" fill="rgba(33, 213, 255, 0.26)" class="triangle-float3"></path><path d="M1397.759,575.741C1451.306,576.66,1503.935,551.491,1529.66,504.519C1554.537,459.095,1540.74,405.605,1515.79,360.221C1489.644,312.662,1451.903,268.311,1397.759,264.592C1337.655,260.464,1275.967,288.534,1247.851,341.817C1221.113,392.488,1242.56,451.885,1273.473,500.123C1301.517,543.884,1345.791,574.849,1397.759,575.741" fill="rgba(33, 213, 255, 0.26)" class="triangle-float1"></path><path d="M1244.533,572.204C1273.926,571.74,1301.13,557.951,1316.984,533.196C1334.283,506.185,1342.148,472.038,1326.68,443.938C1310.756,415.011,1277.476,399.325,1244.533,401.583C1214.849,403.617,1194.575,428.167,1179.817,454.003C1165.217,479.563,1153.876,509.727,1168.012,535.546C1182.57,562.136,1214.223,572.682,1244.533,572.204" fill="rgba(33, 213, 255, 0.26)" class="triangle-float3"></path><path d="M1322.238,542.004C1360.631,541.993,1386.617,507.244,1405.128,473.608C1422.797,441.502,1432.124,404.527,1416.012,371.612C1397.879,334.567,1363.444,306.067,1322.238,304.272C1278.058,302.347,1232.608,323.06,1213.155,362.773C1195.252,399.322,1218.107,438.89,1239.266,473.655C1259.233,506.462,1283.833,542.015,1322.238,542.004" fill="rgba(33, 213, 255, 0.26)" class="triangle-float3"></path><path d="M704.926,260.118C749.599,259.425,795.167,247.081,819.259,209.455C845.172,168.986,847.416,116.666,823.448,75.016C799.425,33.27,753.084,11.569,704.926,10.77C655.194,9.945,604.864,28.247,579.391,70.968C553.37,114.608,556.187,170.765,584.283,213.099C609.864,251.643,658.672,260.835,704.926,260.118" fill="rgba(33, 213, 255, 0.26)" class="triangle-float2"></path></g><defs><mask id="SvgjsMask1010"><rect width="1440" height="560" fill="#ffffff"></rect></mask><style>
                @keyframes float1 {
                    0%{transform: translate(0, 0)}
                    50%{transform: translate(-10px, 0)}
                    100%{transform: translate(0, 0)}
                }

                .triangle-float1 {
                    animation: float1 5s infinite;
                }

                @keyframes float2 {
                    0%{transform: translate(0, 0)}
                    50%{transform: translate(-5px, -5px)}
                    100%{transform: translate(0, 0)}
                }

                .triangle-float2 {
                    animation: float2 4s infinite;
                }

                @keyframes float3 {
                    0%{transform: translate(0, 0)}
                    50%{transform: translate(0, -10px)}
                    100%{transform: translate(0, 0)}
                }

                .triangle-float3 {
                    animation: float3 6s infinite;
                }
            </style></defs></svg>