<svg xmlns="http://www.w3.org/2000/svg" version="1.1" xmlns:xlink="http://www.w3.org/1999/xlink" xmlns:svgjs="http://svgjs.dev/svgjs" width="1440" height="560" preserveAspectRatio="none" viewBox="0 0 1440 560">
    <g mask="url(&quot;#SvgjsMask1008&quot;)" fill="none">
        <path d="M1402.138,366.695C1432.609,364.18,1450.207,335.319,1464.883,308.497C1478.748,283.158,1491.488,254.028,1477.663,228.667C1463.409,202.52,1431.917,193.142,1402.138,193.397C1372.871,193.647,1344.904,205.489,1328.818,229.94C1310.904,257.169,1303.064,291.855,1318.465,320.58C1334.593,350.662,1368.121,369.502,1402.138,366.695" fill="rgba(94, 255, 200, 0.26)" class="triangle-float2"></path>
        <path d="M681.438,492.995C712.901,495.866,744.893,481.389,760.876,454.136C777.024,426.603,773.675,391.845,756.565,364.899C740.622,339.791,711.178,328.654,681.438,329.034C652.437,329.405,622.804,340.973,609.566,366.778C597.146,390.988,610.217,417.974,623.681,441.619C637.347,465.618,653.935,490.486,681.438,492.995" fill="rgba(94, 255, 200, 0.26)" class="triangle-float3"></path>
        <path d="M1071.402,418.092C1119.053,418.739,1171.736,411.013,1195.765,369.86C1219.931,328.474,1200.333,278.951,1177.134,237.015C1152.9,193.208,1121.462,145.593,1071.402,145.053C1020.777,144.507,985.551,190.062,961.646,234.691C939.351,276.315,928.508,326.042,952.756,366.56C976.488,406.215,1025.192,417.464,1071.402,418.092" fill="rgba(94, 255, 200, 0.26)" class="triangle-float2"></path>
        <path d="M928.428,204.864C959.449,204.646,989.522,191.6,1005.604,165.072C1022.271,137.579,1022.807,103.145,1007.099,75.094C991.027,46.393,961.258,25.188,928.428,27.252C898.134,29.157,880.225,57.634,865.209,84.014C850.422,109.992,835.497,139.681,849.353,166.168C863.932,194.037,896.977,205.085,928.428,204.864" fill="rgba(94, 255, 200, 0.26)" class="triangle-float1"></path>
        <path d="M536.912,302.861C563.72,302.732,587.582,287.775,601.683,264.975C616.636,240.797,622.779,210.814,609.326,185.771C595.226,159.523,566.7,145.11,536.912,144.401C505.752,143.659,473.151,154.789,458.27,182.176C443.873,208.671,454.591,240.339,471.053,265.603C485.812,288.252,509.879,302.991,536.912,302.861" fill="rgba(94, 255, 200, 0.26)" class="triangle-float3"></path>
        <path d="M758.109,184.459C787.986,185.354,811.045,160.833,825.237,134.527C838.622,109.715,842.324,79.691,827.598,55.651C813.42,32.505,785.248,25.423,758.109,24.937C729.85,24.431,698.208,28.551,684.174,53.084C670.2,77.512,683.803,106.177,697.606,130.703C711.787,155.902,729.207,183.593,758.109,184.459" fill="rgba(94, 255, 200, 0.26)" class="triangle-float2"></path>
        <path d="M562.511,570.281C617.492,572.132,664.046,533.019,690.62,484.851C716.242,438.408,719.987,381.161,691.548,336.388C664.811,294.294,612.379,283.289,562.511,283.163C512.357,283.037,457.797,292.52,432.344,335.735C406.618,379.414,423.925,432.374,448.524,476.698C474.092,522.769,509.851,568.508,562.511,570.281" fill="rgba(94, 255, 200, 0.26)" class="triangle-float3"></path>
        <path d="M5.901,71.196C30.502,71.494,57.839,71.091,71.654,50.733C86.82,28.384,85.381,-1.949,71.085,-24.864C57.531,-46.589,31.507,-54.823,5.901,-54.663C-19.376,-54.505,-44.769,-45.665,-57.889,-24.059C-71.469,-1.694,-71.71,27.433,-57.151,49.173C-43.874,68.999,-17.958,70.907,5.901,71.196" fill="rgba(94, 255, 200, 0.26)" class="triangle-float2"></path>
        <path d="M989.692,263.675C1009.466,265.258,1029.494,254.48,1038.199,236.655C1046.169,220.335,1036.209,202.764,1027.118,187.041C1018.042,171.345,1007.771,154.132,989.692,152.766C969.722,151.257,949.605,162.452,940.996,180.534C933.204,196.901,943.838,214.192,952.999,229.834C962.012,245.222,971.916,262.252,989.692,263.675" fill="rgba(94, 255, 200, 0.26)" class="triangle-float2"></path>
        <path d="M1497.209,259.813C1554.18,263.269,1608.897,232.518,1637.291,183.006C1665.552,133.727,1664.502,70.944,1632.401,24.076C1603.597,-17.977,1548.093,-24.5,1497.209,-21.514C1452.445,-18.887,1410.028,0.025,1386.964,38.48C1363.225,78.06,1363.191,126.312,1383.768,167.624C1407.052,214.37,1445.081,256.65,1497.209,259.813" fill="rgba(94, 255, 200, 0.26)" class="triangle-float2"></path>
        <path d="M271.151,338.529C311.877,340.486,355.337,329.661,376.595,294.868C398.584,258.88,390.705,213.663,369.836,177.014C348.717,139.926,313.818,110.698,271.151,109.696C226.877,108.656,184.137,132.69,164.093,172.18C145.542,208.728,159.728,251.047,181.909,285.513C201.978,316.697,234.11,336.749,271.151,338.529" fill="rgba(94, 255, 200, 0.26)" class="triangle-float2"></path>
        <path d="M1227.115,588.608C1255.072,589.711,1286.157,582.644,1299.143,557.861C1311.592,534.104,1295.918,507.49,1281.459,484.9C1268.511,464.671,1251.133,445.441,1227.115,445.326C1202.942,445.21,1184.077,463.517,1171.858,484.374C1159.472,505.516,1152.824,530.892,1164.301,552.541C1176.421,575.404,1201.258,587.588,1227.115,588.608" fill="rgba(94, 255, 200, 0.26)" class="triangle-float2"></path>
    </g>
    <defs>
        <mask id="SvgjsMask1008">
            <rect width="1440" height="560" fill="#ffffff"></rect>
        </mask>
        <style>
            @keyframes float1 {
                    0%{transform: translate(0, 0)}
                    50%{transform: translate(-10px, 0)}
                    100%{transform: translate(0, 0)}
                }

                .triangle-float1 {
                    animation: float1 5s infinite;
                }

                @keyframes float2 {
                    0%{transform: translate(0, 0)}
                    50%{transform: translate(-5px, -5px)}
                    100%{transform: translate(0, 0)}
                }

                .triangle-float2 {
                    animation: float2 4s infinite;
                }

                @keyframes float3 {
                    0%{transform: translate(0, 0)}
                    50%{transform: translate(0, -10px)}
                    100%{transform: translate(0, 0)}
                }

                .triangle-float3 {
                    animation: float3 6s infinite;
                }
        </style>
    </defs>
</svg>