<svg xmlns="http://www.w3.org/2000/svg" width="100%" height="100%" viewBox="0 0 800 600" preserveAspectRatio="none">
    <defs>
        <style>
            /* Subtle sway animations */
            @keyframes gentleSway1 {
                0%, 100% { transform: rotate(0deg); }
                50% { transform: rotate(1deg); }
            }

            @keyframes gentleSway2 {
                0%, 100% { transform: rotate(0deg); }
                50% { transform: rotate(-1deg); }
            }

            .seaweed1 {
                animation: gentleSway1 10s ease-in-out infinite;
                transform-origin: bottom;
            }

            .seaweed2 {
                animation: gentleSway2 12s ease-in-out infinite;
                transform-origin: bottom;
            }

            .seaweed3 {
                animation: gentleSway1 14s ease-in-out infinite;
                transform-origin: bottom;
            }
        </style>
    </defs>

    <!-- Intertwined Curvy Seaweed Lines in Shades of Green -->
    <path class="seaweed1" d="M50,600 Q100,400 120,300 Q160,150 250,80 Q340,30 450,0" fill="none" stroke="rgba(25, 206, 134, 0.6)" stroke-width="3" />
    <path class="seaweed2" d="M100,600 Q180,420 200,320 Q250,180 300,140 Q400,100 550,50" fill="none" stroke="rgba(34, 175, 115, 0.6)" stroke-width="3" />
    <path class="seaweed3" d="M150,600 Q220,450 260,350 Q300,220 380,180 Q460,120 600,80" fill="none" stroke="rgba(28, 155, 105, 0.6)" stroke-width="3" />
    <path class="seaweed1" d="M200,600 Q280,480 300,400 Q350,300 450,250 Q550,200 700,150" fill="none" stroke="rgba(23, 195, 120, 0.6)" stroke-width="3" />
    <path class="seaweed2" d="M250,600 Q300,500 350,450 Q400,350 500,300 Q600,250 750,200" fill="none" stroke="rgba(19, 206, 134, 0.6)" stroke-width="3" />
</svg>
