<svg xmlns="http://www.w3.org/2000/svg" version="1.1" xmlns:xlink="http://www.w3.org/1999/xlink" xmlns:svgjs="http://svgjs.dev/svgjs" width="1440" height="560" preserveAspectRatio="none" viewBox="0 0 1440 560">
    <g mask="url(&quot;#SvgjsMask1029&quot;)" fill="none">
        <path d="M388.19 188.52 a121.91 121.91 0 1 0 243.82 0 a121.91 121.91 0 1 0 -243.82 0z" fill="rgba(30, 29, 29, 0.4)" class="triangle-float2"></path>
        <path d="M1375.754,273.935C1427.177,276.646,1467.75,235.673,1493.826,191.27C1520.315,146.164,1534.208,91.976,1509.771,45.726C1483.897,-3.243,1431.133,-32.928,1375.754,-32.195C1321.565,-31.477,1270.541,0.029,1247.747,49.196C1227.612,92.628,1253.751,138.262,1277.444,179.86C1301.504,222.102,1327.208,271.375,1375.754,273.935" fill="rgba(30, 29, 29, 0.4)" class="triangle-float2"></path>
        <path d="M793.75 24.63 a171.46 171.46 0 1 0 342.92 0 a171.46 171.46 0 1 0 -342.92 0z" fill="rgba(30, 29, 29, 0.4)" class="triangle-float2"></path>
        <path d="M1421.264,374.117C1465.71,374.96,1496.441,334.304,1517.37,295.085C1536.821,258.635,1545.315,215.681,1525.017,179.696C1504.406,143.156,1463.172,126.617,1421.264,124.704C1375.036,122.594,1321.664,128.681,1299.697,169.411C1278.301,209.081,1308.26,252.801,1331.274,291.554C1353.552,329.068,1377.641,373.289,1421.264,374.117" fill="rgba(30, 29, 29, 0.4)" class="triangle-float2"></path>
        <path d="M1043.38,74.933C1064.019,75.888,1083.261,64.446,1093.854,46.707C1104.725,28.502,1105.878,5.962,1095.659,-12.617C1085.065,-31.878,1065.331,-46.223,1043.38,-45.061C1022.887,-43.977,1008.933,-25.966,999.88,-7.549C992.01,8.461,992.076,26.602,1000.398,42.382C1009.384,59.421,1024.138,74.042,1043.38,74.933" fill="rgba(30, 29, 29, 0.4)" class="triangle-float2"></path>
        <path d="M808.037,358.204C833.924,357.557,854.658,340.253,868.654,318.466C884.219,294.238,896.327,265.596,884.356,239.405C870.509,209.11,841.346,186.135,808.037,185.847C774.312,185.555,744.155,207.739,729.393,238.063C716.179,265.208,725.402,296.372,741.937,321.631C756.719,344.212,781.056,358.878,808.037,358.204" fill="rgba(30, 29, 29, 0.4)" class="triangle-float1"></path>
        <path d="M-83.03 244.69 a124.16 124.16 0 1 0 248.32 0 a124.16 124.16 0 1 0 -248.32 0z" fill="rgba(30, 29, 29, 0.4)" class="triangle-float2"></path>
        <path d="M16.233,242.12C41.303,242.779,63.27,225.807,74.914,203.595C85.769,182.888,81.687,158.907,70.662,138.29C58.825,116.154,41.261,95.788,16.233,93.859C-11.988,91.684,-42.274,103.308,-54.966,128.608C-66.846,152.29,-51.415,178.199,-37.337,200.644C-24.475,221.149,-7.964,241.484,16.233,242.12" fill="rgba(30, 29, 29, 0.4)" class="triangle-float3"></path>
        <path d="M747.846,379.728C785.688,380.996,828.473,377.97,848.199,345.652C868.462,312.454,856.916,269.477,834.571,237.642C815.378,210.298,781.242,203.524,747.846,202.679C712.335,201.78,672.612,203.322,653.17,233.051C632.369,264.858,637.891,307.365,658.502,339.296C677.502,368.732,712.83,378.555,747.846,379.728" fill="rgba(30, 29, 29, 0.4)" class="triangle-float3"></path>
        <path d="M1117.1 514.89 a128.55 128.55 0 1 0 257.1 0 a128.55 128.55 0 1 0 -257.1 0z" fill="rgba(30, 29, 29, 0.4)" class="triangle-float3"></path>
        <path d="M-135.72 422.79 a137.92 137.92 0 1 0 275.84 0 a137.92 137.92 0 1 0 -275.84 0z" fill="rgba(30, 29, 29, 0.4)" class="triangle-float1"></path>
    </g>
    <defs>
        <mask id="SvgjsMask1029">
            <rect width="1440" height="560" fill="#ffffff"></rect>
        </mask>
        <style>
            @keyframes float1 {
                    0%{transform: translate(0, 0)}
                    50%{transform: translate(-10px, 0)}
                    100%{transform: translate(0, 0)}
                }

                .triangle-float1 {
                    animation: float1 5s infinite;
                }

                @keyframes float2 {
                    0%{transform: translate(0, 0)}
                    50%{transform: translate(-5px, -5px)}
                    100%{transform: translate(0, 0)}
                }

                .triangle-float2 {
                    animation: float2 4s infinite;
                }

                @keyframes float3 {
                    0%{transform: translate(0, 0)}
                    50%{transform: translate(0, -10px)}
                    100%{transform: translate(0, 0)}
                }

                .triangle-float3 {
                    animation: float3 6s infinite;
                }
        </style>
    </defs>
</svg>